<svg width="185" height="32" fill="none" xmlns="http://www.w3.org/2000/svg"><path d="M121.09 28.336c2.352 0 4.392-1.248 5.424-3.12l-2.688-1.536c-.48.984-1.512 1.584-2.76 1.584-1.848 0-3.216-1.368-3.216-3.264 0-1.92 1.368-3.288 3.216-3.288 1.224 0 2.256.624 2.736 1.608l2.664-1.56c-.984-1.848-3.024-3.096-5.376-3.096-3.648 0-6.336 2.76-6.336 6.336 0 3.576 2.688 6.336 6.336 6.336ZM137.084 16v1.416c-.864-1.08-2.16-1.752-3.912-1.752-3.192 0-5.832 2.76-5.832 6.336 0 3.576 2.64 6.336 5.832 6.336 1.752 0 3.048-.672 3.912-1.752V28h3.096V16h-3.096Zm-3.336 9.384c-1.896 0-3.312-1.368-3.312-3.384s1.416-3.384 3.312-3.384c1.92 0 3.336 1.368 3.336 3.384s-1.416 3.384-3.336 3.384ZM149.851 18.976V16h-2.712v-3.36l-3.096.936V16h-2.088v2.976h2.088v4.992c0 3.24 1.464 4.512 5.808 4.032v-2.808c-1.776.096-2.712.072-2.712-1.224v-4.992h2.712ZM153.57 14.56c1.056 0 1.92-.864 1.92-1.896s-.864-1.92-1.92-1.92c-1.032 0-1.896.888-1.896 1.92s.864 1.896 1.896 1.896ZM152.034 28h3.096V16h-3.096v12ZM163.676 28.336c3.528 0 6.36-2.76 6.36-6.336 0-3.576-2.832-6.336-6.36-6.336-3.528 0-6.336 2.76-6.336 6.336 0 3.576 2.808 6.336 6.336 6.336Zm0-3.024c-1.824 0-3.24-1.368-3.24-3.312 0-1.944 1.416-3.312 3.24-3.312 1.848 0 3.264 1.368 3.264 3.312 0 1.944-1.416 3.312-3.264 3.312ZM178.886 15.664c-1.608 0-2.856.6-3.576 1.68V16h-3.096v12h3.096v-6.48c0-2.088 1.128-2.976 2.64-2.976 1.392 0 2.376.84 2.376 2.472V28h3.096v-7.368c0-3.192-1.992-4.968-4.536-4.968Z" fill="#A3BFFA"/><path d="M61.0634 28.0001h3.768l3.144-11.088 3.168 11.088h3.768l4.704-16.8h-3.48l-3.216 12.456-3.528-12.456h-2.832l-3.504 12.456-3.216-12.456h-3.48l4.704 16.8ZM85.6742 28.3361c3.5281 0 6.36-2.76 6.36-6.336 0-3.576-2.8319-6.336-6.36-6.336-3.528 0-6.336 2.76-6.336 6.336 0 3.576 2.808 6.336 6.336 6.336Zm0-3.024c-1.8239 0-3.24-1.368-3.24-3.312 0-1.944 1.4161-3.312 3.24-3.312 1.848 0 3.2641 1.368 3.2641 3.312 0 1.944-1.4161 3.312-3.2641 3.312ZM97.3083 18.0641v-2.064h-3.0961v12h3.0961v-5.736c0-2.52 2.0399-3.24 3.6477-3.048v-3.456c-1.5118 0-3.0237.672-3.6477 2.304ZM113.831 28.0001l-4.968-6.072 4.824-5.928h-3.696l-4.128 5.28v-10.08h-3.096v16.8h3.096v-5.448l4.368 5.448h3.6Z" fill="#fff"/><path fill-rule="evenodd" clip-rule="evenodd" d="m43.9111 12.6044-7.6982-4.44475V28.8051h9v2H1.21289v-2h4V16.0858l-3.72782.9319L1 15.0774l21.0896-5.27235h3.1223c-.3446.81745-.5736 1.67935-.6803 2.55865l-.4821 3.9749 5.1634-2.9812v15.4477h5V8.16087l-7.6963 4.44363c.2217-1.8277 1.1113-3.55593 2.5654-4.79946h-4.1191c1.3682-1.82166 3.5469-3 6.001-3 .2168 0 .4326.00927.6445.02746l-5.5918-3.22864c2.0957-.893428 4.5713-.824702 6.6963.40223 1.0391.59973 1.8809 1.41064 2.501 2.34716.6201-.93652 1.4609-1.74743 2.5-2.34716 2.125-1.226932 4.6015-1.295658 6.6972-.40223L38.8184 4.8325c.2128-.01819.4287-.02746.6464-.02746 2.4532 0 4.6319 1.17834 6 3h-4.1201c1.4551 1.24353 2.3448 2.97176 2.5664 4.79936ZM25.2129 28.8051v-10h-6v10h6Zm-11-8c0 1.1045-.8954 2-2 2s-2-.8955-2-2c0-1.1046.8954-2 2-2s2 .8954 2 2Z" fill="#A3BFFA"/></svg>